# xmcd
# Track frame offsets:
# 150
# 16375
# 39650
# 55870
# 73251
# 89502
# 110902
# 128969
# 142867
# 155685
# 170649
# 188148
# 203842
# 219556
# 236491
#
# Disc length: 3320 seconds
# Revision: 0
# Processed by: cddbd v1.5.1PL0 Copyright (c) Steve Scherf et al.
# Submitted via: VisiTrax 2.9.10.228 - For more info visit www.synapsa.com
#
DISCID=e10cf60f
DTITLE=Various Artist - CB60328
DYEAR=1900
DGENRE=Karaoke
TTITLE0=Twain, Shania and Billy - Party For Two
TTITLE1=McGraw, Tim - Back When
TTITLE2=Tritt, Travis and John - What Say You
TTITLE3=McEntire, Reba - He Gets That From Me
TTITLE4=Buffett, Jimmy and Martina - Trip Around The Sun
TTITLE5=Chesney, Kenny - Woman With You, The
TTITLE6=Los Lonely Boys - Heaven
TTITLE7=Rimes, LeAnn - Nothin' 'bout Love Makes Sense
TTITLE8=Gracin, Josh - Nothin' To Lose
TTITLE9=Cotter, Brad - Cant Tell Me Nothin
TTITLE10=Proctor, Rachel - Where I Belong
TTITLE11=Drake, Dusty - I Am The Working Man
TTITLE12=Canyon, George - l'll Never Do Better Than You
TTITLE13=Sutherland, Christy - Freedom
TTITLE14=Nelson, Willie and Toby - Midnight Rider
EXTD=
EXTT0=
EXTT1=
EXTT2=
EXTT3=
EXTT4=
EXTT5=
EXTT6=
EXTT7=
EXTT8=
EXTT9=
EXTT10=
EXTT11=
EXTT12=
EXTT13=
EXTT14=
PLAYORDER=
